<svg id="Layer_1" data-name="Layer 1" xmlns="http://www.w3.org/2000/svg" xmlns:xlink="http://www.w3.org/1999/xlink" viewBox="0 0 310 85"><defs><style>.cls-1{fill:none;}.cls-2{clip-path:url(#clip-path);}.cls-3{fill:#231f20;}</style><clipPath id="clip-path"><polygon class="cls-1" points="297.83 82.17 3.27 82.17 3.27 3.83 297.83 82.17"/></clipPath></defs><title>03 Rayitas</title><g class="cls-2"><rect class="cls-3" x="-43.5" y="-16.11" width="149.17" height="1.5" transform="translate(19.97 17.48) rotate(-45)"/><rect class="cls-3" x="-69.32" y="-61.49" width="325.5" height="1.5" transform="translate(70.31 48.28) rotate(-45)"/><rect class="cls-3" x="-60.83" y="-53" width="325.5" height="1.5" transform="translate(66.8 56.76) rotate(-45)"/><rect class="cls-3" x="-52.35" y="-44.52" width="325.5" height="1.5" transform="translate(63.28 65.25) rotate(-45)"/><rect class="cls-3" x="-45.54" y="-35.32" width="327.48" height="1.5" transform="translate(59.06 73.45) rotate(-45)"/><rect class="cls-3" x="-35.38" y="-27.54" width="325.5" height="1.5" transform="translate(56.25 82.22) rotate(-45)"/><rect class="cls-3" x="-26.89" y="-19.06" width="325.5" height="1.5" transform="translate(52.74 90.7) rotate(-45)"/><rect class="cls-3" x="-18.41" y="-10.57" width="325.5" height="1.5" transform="translate(49.22 99.19) rotate(-45)"/><rect class="cls-3" x="-9.92" y="-2.09" width="325.5" height="1.5" transform="translate(45.71 107.67) rotate(-45)"/><rect class="cls-3" x="-1.44" y="6.4" width="325.5" height="1.5" transform="translate(42.19 116.16) rotate(-45)"/><rect class="cls-3" x="7.05" y="14.88" width="325.5" height="1.5" transform="translate(38.68 124.64) rotate(-45)"/><rect class="cls-3" x="15.53" y="23.37" width="325.5" height="1.5" transform="translate(35.16 133.13) rotate(-45)"/><rect class="cls-3" x="24.02" y="31.85" width="325.5" height="1.5" transform="translate(31.65 141.61) rotate(-45)"/><rect class="cls-3" x="32.5" y="40.34" width="325.5" height="1.5" transform="translate(28.14 150.1) rotate(-45)"/><rect class="cls-3" x="40.99" y="48.82" width="325.5" height="1.5" transform="translate(24.62 158.58) rotate(-45)"/><rect class="cls-3" x="49.47" y="57.31" width="325.5" height="1.5" transform="translate(21.11 167.07) rotate(-45)"/><rect class="cls-3" x="57.96" y="65.79" width="325.5" height="1.5" transform="translate(17.59 175.56) rotate(-45)"/><rect class="cls-3" x="66.45" y="74.28" width="325.5" height="1.5" transform="translate(14.08 184.04) rotate(-45)"/><rect class="cls-3" x="74.93" y="82.76" width="325.5" height="1.5" transform="translate(10.56 192.53) rotate(-45)"/><rect class="cls-3" x="83.42" y="91.25" width="325.5" height="1.5" transform="translate(7.05 201.01) rotate(-45)"/><rect class="cls-3" x="91.9" y="99.73" width="325.5" height="1.5" transform="translate(3.53 209.5) rotate(-45)"/><rect class="cls-3" x="100.39" y="108.22" width="325.5" height="1.5" transform="translate(0.02 217.98) rotate(-45)"/></g></svg>