<?xml version="1.0" encoding="utf-8"?>
<!-- Generator: Adobe Illustrator 19.2.1, SVG Export Plug-In . SVG Version: 6.00 Build 0)  -->
<svg version="1.1" id="Layer_1" xmlns="http://www.w3.org/2000/svg" xmlns:xlink="http://www.w3.org/1999/xlink" x="0px" y="0px"
	 viewBox="0 0 307.5 110" style="enable-background:new 0 0 307.5 110;" xml:space="preserve">
<style type="text/css">
	.st0{enable-background:new    ;}
</style>
<title>LOGO MARSALA</title>
<circle cx="154.4" cy="6.8" r="5.2"/>
<polygon points="190.1,47 193.9,43.3 172.2,21.6 172.2,21.6 172.2,21.6 154.2,39.6 136.3,21.6 136.3,21.6 136.3,21.6 114.6,43.3 
	118.3,47 136.3,29.1 150.5,43.3 150.5,43.3 154.2,47 154.2,47 154.2,47 158,43.3 158,43.3 172.2,29.1 "/>
<g class="st0">
	<path d="M10.7,66.5l12.8,25.7l12.7-25.7h7.7v38.7h-6l-0.1-28.9l-12.2,24.9h-4.3L9.1,76.3v28.9H2.9V66.5H10.7z"/>
	<path d="M84.1,96.5H64.6l-3.7,8.7H54l17.1-38.7h6.7l16.9,38.7h-7L84.1,96.5z M81.6,90.7l-7.3-17.2L67,90.7H81.6z"/>
	<path d="M129.5,105.2l-7.1-11.7c-0.6,0.1-1.2,0.1-1.8,0.1h-9.2v11.7h-6.5V66.5h15.7c9.9,0,15.6,4.8,15.6,13.2
		c0,6.2-2.9,10.6-8,12.6l8.7,13H129.5z M120.6,87.7c6,0,9.4-2.5,9.4-7.8c0-5.1-3.4-7.5-9.4-7.5h-9.2v15.3H120.6z"/>
</g>
<g class="st0">
	<path d="M162.5,72.3c-3.8,0-6.3,1.4-6.3,4c0,8.5,20.9,3.9,20.9,17.9c0,6.9-6.1,11.2-14.6,11.2c-6.1,0-11.8-2.5-15.8-6.1l2.8-5.6
		c4,3.7,9,5.6,13.1,5.6c4.5,0,7.2-1.7,7.2-4.7c0-8.6-20.9-3.8-20.9-17.6c0-6.6,5.7-10.8,14.1-10.8c5,0,10,1.6,13.6,4l-2.7,5.8
		C169.6,73.4,165.4,72.3,162.5,72.3z"/>
</g>
<g class="st0">
	<path d="M214.1,96.5h-19.5l-3.7,8.7h-6.8l17.1-38.7h6.7l16.9,38.7h-7L214.1,96.5z M211.7,90.7l-7.3-17.2L197,90.7H211.7z"/>
</g>
<g class="st0">
	<path d="M240.9,66.5v32.8h16.8v5.9h-23.3V66.5H240.9z"/>
</g>
<g class="st0">
	<path d="M294,96.5h-19.5l-3.7,8.7H264l17.1-38.7h6.7l16.9,38.7h-7L294,96.5z M291.5,90.7l-7.3-17.2l-7.3,17.2H291.5z"/>
</g>
</svg>
